<svg xmlns="http://www.w3.org/2000/svg" xmlns:xlink="http://www.w3.org/1999/xlink" viewBox="0 0 2048 1536" fill-rule="evenodd" stroke-linecap="round" stroke-linejoin="round" stroke-miterlimit="1.5" xmlns:v="https://vecta.io/nano"><style><![CDATA[.B{fill:#252d38}.C{fill:#fff}.D{fill:none}.E{fill-rule:nonzero}.F{fill:#d4dbe2}.G{fill:#acb3be}.H{fill:#303030}.I{stroke:#fff}.J{fill:#ded6b7}.K{fill:#b3ac91}.L{fill:#9dd6fe}.M{fill:#8cbfe3}.N{fill:#2a2a2a}.O{stroke:#252d38}.P{stroke-width:17.07}]]></style><ellipse cx="1016.72" cy="1226.02" rx="779.806" ry="160.472" fill="#8a8a8a" fill-opacity=".1" transform="matrix(.963606 0 .465973 .989532 -583.263 59.0348)"/><use xlink:href="#O" class="J"/><clipPath id="A"><use xlink:href="#O"/></clipPath><g clip-path="url(#A)" class="K"><path d="M1186.13 827.946c31.87 3.253 59.64 132.987 9.57 93.112-22.35-17.799-57.26-38.974-57.8-42.376s29.9-52.607 48.23-50.736z"/></g><path d="M1173.25 826.628c20.35 12.27 35.4 21.877 45.69 33.657 10.74 12.304 15.83 27.13 16.34 50.423.52 16.242-1.74 25.815-5.49 31.319-4.67 6.859-11.83 4.958-13.8 4.411-3.81-1.037-4.98-3.7-5.23-7.087-.42-5.627.85-12.538 1.65-19.766.86-7.691 1.27-15.676-.46-23.086-2.01-8.524-8.75-17.04-17.22-24.262-15.01-12.799-34.82-21.948-34.82-21.948a4.49 4.49 0 0 0-6 2.059c-1.08 2.225-.16 4.913 2.07 6 0 0 18.07 9.394 31.54 21.963 6.19 5.769 11.48 12.148 12.73 18.684 1.69 8.683-.37 18.143-1.71 26.636-1.37 8.723-1.89 16.626.32 22.502 2.01 5.377 5.98 9.529 13.28 11.726 4.21 1.242 19.42 4.934 29.5-9.722 4.83-7.018 8.55-19.16 7.74-39.93-1.01-21.053-5.28-36.045-13.2-48.211-11.23-17.26-29.92-28.855-57.82-44.231-2.45-1.41-5.57-.569-6.99 1.877-1.41 2.446-.56 5.576 1.88 6.986z" class="B"/><path d="M676.465 1170.53c-4.6 52.14-.102 79.28 16.013 90.75 16.115 11.46 23.865 4.02 23.668-11.4-.329-25.7.288-65.94 2.059-71.77" class="K"/><path d="M671.59 1170.1c-3.482 30.66-3.63 52.97.005 68.71 3.077 13.32 8.92 22.26 16.903 28.06 10.326 7.26 18.434 7.87 23.792 5.43 6.351-2.9 10.643-10.84 10.286-22.5a1289.55 1289.55 0 0 1-.984-50.05c.02-10.19.099-18.08.718-20.39.689-2.27-.592-4.67-2.857-5.35-2.266-.69-4.664.59-5.353 2.85-.858 2.52-1.805 11.25-2.525 22.56-.973 15.26-1.626 35.4-1.86 50.54-.017 2.74-.342 5.15-.989 7.14-.427 1.31-.909 2.4-1.908 2.83-.748.32-1.651.1-2.731-.2-2.211-.61-4.728-1.97-7.628-4.05-7.491-5.19-11.649-14.51-13.937-28.75-2.248-13.99-2.644-32.31-1.183-55.97.237-2.69-1.754-5.06-4.444-5.3s-5.067 1.75-5.305 4.44z" class="B"/><path d="M1003.97 1166.71s1.82 62.63 10.56 74.52c13.56 18.41 38.24 7.72 35.52-4.49-2.71-12.22-6.3-85.2-6.3-85.2" class="K"/><path d="M998.683 1166.87s-.065 30.82 2.927 53.7c1.48 11.3 4.12 20.74 7.09 24.95 9.27 12.78 22.76 14.9 32.87 11.78 11.02-3.39 17.67-12.96 15.51-22.13-.9-3.68-1.96-13.16-3.13-24.42l-5.57-59.44c-.12-2.56-2.3-4.53-4.86-4.41-2.56.13-4.53 2.31-4.41 4.87 0 0 .44 34.35 1.66 59.98.59 12.23 1.45 22.52 2.25 26.55.23 1.13-.78 1.95-1.75 2.75-2.45 2.02-6.25 3.05-10.17 2.52-3.77-.51-7.63-2.51-10.73-6.64-1.28-1.67-2.23-4.77-3.21-8.6-1.26-4.93-2.35-10.88-3.28-17.12-3.14-20.84-4.62-44.65-4.62-44.65-.08-2.92-2.52-5.22-5.44-5.14-2.92.09-5.222 2.53-5.137 5.45z" class="B"/><g transform="translate(-4.679 -9.258)"><use xlink:href="#P" class="L"/><clipPath id="B"><use xlink:href="#P"/></clipPath><g clip-path="url(#B)" class="M"><path d="M1319.859 1012.168c-.57-5.151 8.14-420.128-26.72-605.69-10.39-55.324-34.96-83.7-51.89-82.958-13.06.573 66.62 101.123 6.93 230.797-27.36 59.45-54.26 132.562-73.68 203.55-17.56 64.17-19.92 151.522-29.04 192.617-10.82 48.717-62.89 43.686-66.79 49.585-30.74 46.499-275.866 30.479-472.308 10.659-114.239-11.533-145.776-255.486-102.478-453.168 26.808-122.396 116.68-203.565 165.711-227.025 110.828-53.03-266.021-179.014-363.825 35.216-77.514 169.789-55.973 484.614 50.265 613.884l-11.036 387.483 938.261-49.91c-11.09.71 36.6-305.04 36.6-305.04zM658.804 699.309c29.061 67.274 102.534 102.66 161.7 112.204 51.045 8.234 155.825-36.721 166.059-124.586 14.27-122.522-54.907-126.995-54.907-126.995s-294.45 89.378-272.852 139.377z"/><path d="M1059.02 691.483c25.929 65.347 88.641 95.147 141.431 104.417 45.545 7.999 142.01-36.216 151.141-121.565 12.732-119.014-49.124-118.238-49.124-118.238s-262.719 86.818-243.449 135.385zm-101.158 92.469c4.319 11.019 8.187 15.998 17.487 21.847 6.886 4.331 11.074 4.018 18.241 6.951-2.334 12.959-3.004 22.759 10.887 26.522 19.554 5.296 54.21 1.114 48.585-30.02 5.444-.708 24.022-1.62 26.066-8.864 10.869-38.521-16.793-52.059-16.793-52.059s-112.784 14.419-104.473 35.623zM595.619 887.901c-2.052 37.546 30.004 77.108 30.004 77.108l138.136 7.868s-11.669-10.629-12.647-22.55c-1.259-15.328-30.411-20.286-49.104-22.114-39.894-3.902-56.801-38.98-59.018-41.864s-46.027-23.033-47.371 1.552z"/></g><path d="M454.845 688.051c6.648 153.489 22.778 272.268 68.217 358.789 38.294 72.91 97.164 123.37 188.611 152.48 93.28 29.62 185.03 26.8 262.467 6.16 110.33-29.4 191.34-95.29 207.94-154.55 15.82-56.453-1.65-82.592 1.3-143.787.8-16.711 3.21-36.11 8.35-59.609 15.99-72.771 53.86-123.669 81.2-202.196 13.67-39.26 24.8-85.315 29.37-144.213 5.17-66.302-20.85-128.929-76.06-178.81-58.74-53.054-150.83-91.788-274.184-104.231-122.796-12.633-253.998 36.811-350.729 126.633-91.445 84.914-151.92 205.769-146.482 343.334zm18.886-.782c-5.717-131.948 52.353-247.741 139.528-329.79 92.822-87.364 218.758-136.694 337.449-125.643 120.052 11.418 210.122 48.065 267.402 99.498 52.33 46.978 77.02 106.198 72.16 168.855-4.5 57.649-15.35 102.745-28.79 141.152-27.66 79.032-65.9 130.2-82.22 203.435-5.43 24.317-7.98 44.403-8.9 61.709-3.17 59.863 14.22 85.533-1.55 140.695-16.01 55.95-94.06 116.34-198.549 143.59-74.913 19.53-163.56 21.82-253.517-7.27-86.448-27.88-142.16-75.64-178.145-144.79-44.145-84.825-58.928-201.22-64.868-351.441z" class="B"/></g><g transform="translate(6.347 12.489)"><g transform="matrix(-.711548 0 0 .895108 767.903 37.6399)"><use xlink:href="#Q" class="F"/><clipPath id="C"><use xlink:href="#Q"/></clipPath><g clip-path="url(#C)" class="G"><g transform="matrix(-1.40346 .058454 .073533 1.11565 1085.4 -205.749)"><use xlink:href="#R"/></g></g><use xlink:href="#S" class="H"/></g><g transform="matrix(1 0 0 1.04783 1.53018 -53.4445)"><use xlink:href="#Q" class="F"/><clipPath id="D"><use xlink:href="#Q"/></clipPath><g clip-path="url(#D)" class="G"><path d="M456.916 986.169c1.577 14.821-65.071 58.941-63.242 77.933 1.648 17.121 68.255 6.07 70.213 26.741 2.835 29.938 2.405 142.323 4.088 168.167.372 5.717 6.384 2.949 6.708 8.436l1.975 37.64c1.868 30.081.994 50.085.994 50.085l116.978-6.881-69.079-343.415"/></g><path d="M434.601 1042.3c-3.457.14-6.231 2.77-6.387 6.07-1.847 44.99-1.912 88.65-.026 130.76 2.028 45.28 6.317 88.79 13.358 130.24.3 1.81 1.604 3.33 3.408 3.96 7.122 2.49 16.241 4.25 27.422 3.75 7.834-.35 16.707-1.8 26.633-4.95 2.115-.67 3.555-2.54 3.586-4.67.422-25.51.033-51.64-.634-78.5l-5.042-182.56c-.026-1.63-.739-3.17-1.976-4.29a6.5 6.5 0 0 0-4.595-1.64l-55.747 1.83zm49.832 10.5l-43.2 1.94c-2.144 42.58-2.709 83.96-1.334 123.97 1.505 43.76 5.317 85.86 11.656 126.05 5.548 1.62 12.321 2.64 20.345 2.3 6.06-.25 12.813-1.27 20.275-3.36.249-24.23-.147-49.02-.956-74.46l-6.786-176.44z" class="H"/></g><g transform="matrix(-.976145 0 0 1.06648 2061.47 -104.665)"><use xlink:href="#Q" class="F"/><clipPath id="E"><use xlink:href="#Q"/></clipPath><g clip-path="url(#E)" class="G"><g transform="matrix(-1.01948 .092168 .100697 .933122 825.531 5.44008)"><path d="M460.358 1000.35c-176.565 166.34 8.021 79.5 10.788 116.86 4.227 57.05-25.366 124.17-23.949 167.25.798 24.27 33.314 30.81 33.586 48.4l.311 54.14 116.978-7.21-69.079-359.84"/></g></g><path d="M428.051 1048.39c.153-3.24 2.99-5.84 6.531-5.98l55.748-1.84c1.748-.07 3.452.51 4.724 1.61s2.005 2.62 2.031 4.22c.729 64.89 3.598 125.39 5.01 182.57.663 26.86 1.052 52.98.628 78.48-.031 2.07-1.474 3.9-3.609 4.58-9.957 3.15-18.858 4.61-26.717 4.96-11.236.51-20.399-1.27-27.556-3.77-1.824-.64-3.131-2.13-3.424-3.9-7.045-41.45-11.334-84.95-13.368-130.22-1.891-42.11-1.836-85.74.002-130.71zm56.215 4.32l6.82 176.52c.813 25.49 1.21 50.32.96 74.58-7.417 2.07-14.131 3.09-20.158 3.34-7.96.33-14.682-.67-20.192-2.27-6.345-40.23-10.16-82.37-11.659-126.18-1.37-40.04-.793-81.46 1.363-124.08l42.866-1.91z" class="H"/></g><g transform="matrix(-.711548 0 0 .895108 1704 39.7164)"><use xlink:href="#Q" class="F"/><clipPath id="F"><use xlink:href="#Q"/></clipPath><g clip-path="url(#F)" class="G"><g transform="matrix(-1.40539 0 0 1.11718 1193.98 -202.465)"><use xlink:href="#R"/></g></g><use xlink:href="#S" class="H"/></g><g transform="matrix(1.34999 0 0 1.34999 -171.428 -373.801)"><use xlink:href="#T" fill="#aab7c6"/><clipPath id="G"><use xlink:href="#T"/></clipPath><g clip-path="url(#G)"><g transform="matrix(1 0 .011553 1 -7.45503 1.46838)" class="E"><g transform="matrix(1.03982 -.030346 0 1.03982 -57.3368 -23.4428)" class="C"><use xlink:href="#U"/><use xlink:href="#V"/><use xlink:href="#W"/><use xlink:href="#X"/><use xlink:href="#Y"/><use xlink:href="#Z"/><path d="M944.984 1147.728c0-3.294.551-6.587 1.79-10.018 1.101-3.294 2.891-6.587 5.231-9.881 2.34-3.156 5.781-5.764 10.049-7.822s9.223-3.019 14.867-3.019c13.628 0 20.51 3.294 20.51 10.018 0 1.921-.551 3.431-1.79 4.666-1.101 1.098-2.615 1.647-4.405 1.647-3.854 0-5.919-2.196-6.057-6.724 0-.823-2.753-1.235-8.259-1.235-4.267 0-7.984.823-11.15 2.47s-5.644 3.842-7.158 6.313c-1.514 2.607-2.615 4.94-3.166 7.273-.688 2.196-.964 4.391-.964 6.313 0 6.175 2.202 11.527 6.332 15.644 4.267 4.254 9.36 6.45 15.28 6.45 6.47 0 11.012-2.745 13.628-8.234.413-1.372.964-2.196 1.652-2.47.688-.412 1.652-.549 2.891-.549 3.166 0 4.818 1.235 4.818 3.705 0 .961-.413 2.058-1.101 3.705-.688 1.51-1.927 3.156-3.441 5.215-1.652 1.921-4.13 3.568-7.571 4.94s-7.296 2.058-11.701 2.058c-8.535 0-15.693-3.019-21.474-9.057-5.919-5.901-8.81-13.037-8.81-21.408z"/><use xlink:href="#a"/><use xlink:href="#b"/><path d="M1160.619 1147.728c0-3.294.551-6.587 1.79-10.018 1.101-3.294 2.891-6.587 5.231-9.881 2.34-3.156 5.781-5.764 10.049-7.822s9.223-3.019 14.867-3.019c13.628 0 20.51 3.294 20.51 10.018 0 1.921-.551 3.431-1.79 4.666-1.101 1.098-2.615 1.647-4.405 1.647-3.854 0-5.919-2.196-6.057-6.724 0-.823-2.753-1.235-8.259-1.235-4.267 0-7.984.823-11.15 2.47s-5.644 3.842-7.158 6.313c-1.514 2.607-2.615 4.94-3.166 7.273-.688 2.196-.964 4.391-.964 6.313 0 6.175 2.202 11.527 6.332 15.644 4.267 4.254 9.36 6.45 15.28 6.45 6.47 0 11.012-2.745 13.628-8.234.413-1.372.964-2.196 1.652-2.47.688-.412 1.652-.549 2.891-.549 3.166 0 4.818 1.235 4.818 3.705 0 .961-.413 2.058-1.101 3.705-.688 1.51-1.927 3.156-3.441 5.215-1.652 1.921-4.13 3.568-7.571 4.94s-7.296 2.058-11.701 2.058c-8.535 0-15.693-3.019-21.474-9.057-5.919-5.901-8.81-13.037-8.81-21.408z"/><use xlink:href="#c"/></g><g transform="matrix(1.03982 -.030346 0 1.03982 -59.6771 -25.0743)" fill="#242424"><use xlink:href="#U"/><use xlink:href="#V"/><use xlink:href="#W"/><use xlink:href="#X"/><use xlink:href="#Y"/><use xlink:href="#Z"/><path d="M944.984 1147.728c0-3.294.551-6.587 1.79-10.018 1.101-3.294 2.891-6.587 5.231-9.881 2.34-3.156 5.781-5.764 10.049-7.822s9.223-3.019 14.867-3.019c13.628 0 20.51 3.294 20.51 10.018 0 1.921-.551 3.431-1.79 4.666-1.101 1.098-2.615 1.647-4.405 1.647-3.854 0-5.919-2.196-6.057-6.724 0-.823-2.753-1.235-8.259-1.235-4.267 0-7.984.823-11.15 2.47s-5.644 3.842-7.158 6.313c-1.514 2.607-2.615 4.94-3.166 7.273-.688 2.196-.964 4.391-.964 6.313 0 6.175 2.202 11.527 6.332 15.644 4.267 4.254 9.36 6.45 15.28 6.45 6.47 0 11.012-2.745 13.628-8.234.413-1.372.964-2.196 1.652-2.47.688-.412 1.652-.549 2.891-.549 3.166 0 4.818 1.235 4.818 3.705 0 .961-.413 2.058-1.101 3.705-.688 1.51-1.927 3.156-3.441 5.215-1.652 1.921-4.13 3.568-7.571 4.94s-7.296 2.058-11.701 2.058c-8.535 0-15.693-3.019-21.474-9.057-5.919-5.901-8.81-13.037-8.81-21.408z"/><use xlink:href="#a"/><use xlink:href="#b"/><path d="M1160.619 1147.728c0-3.294.551-6.587 1.79-10.018 1.101-3.294 2.891-6.587 5.231-9.881 2.34-3.156 5.781-5.764 10.049-7.822s9.223-3.019 14.867-3.019c13.628 0 20.51 3.294 20.51 10.018 0 1.921-.551 3.431-1.79 4.666-1.101 1.098-2.615 1.647-4.405 1.647-3.854 0-5.919-2.196-6.057-6.724 0-.823-2.753-1.235-8.259-1.235-4.267 0-7.984.823-11.15 2.47s-5.644 3.842-7.158 6.313c-1.514 2.607-2.615 4.94-3.166 7.273-.688 2.196-.964 4.391-.964 6.313 0 6.175 2.202 11.527 6.332 15.644 4.267 4.254 9.36 6.45 15.28 6.45 6.47 0 11.012-2.745 13.628-8.234.413-1.372.964-2.196 1.652-2.47.688-.412 1.652-.549 2.891-.549 3.166 0 4.818 1.235 4.818 3.705 0 .961-.413 2.058-1.101 3.705-.688 1.51-1.927 3.156-3.441 5.215-1.652 1.921-4.13 3.568-7.571 4.94s-7.296 2.058-11.701 2.058c-8.535 0-15.693-3.019-21.474-9.057-5.919-5.901-8.81-13.037-8.81-21.408z"/><use xlink:href="#c"/></g><g transform="matrix(1.03982 -.030346 0 1.03982 -58.146 -23.9799)" fill="#383838"><use xlink:href="#U"/><use xlink:href="#V"/><use xlink:href="#W"/><use xlink:href="#X"/><use xlink:href="#Y"/><use xlink:href="#Z"/><path d="M944.984 1147.728c0-3.294.551-6.587 1.79-10.018 1.101-3.294 2.891-6.587 5.231-9.881 2.34-3.156 5.781-5.764 10.049-7.822s9.223-3.019 14.867-3.019c13.628 0 20.51 3.294 20.51 10.018 0 1.921-.551 3.431-1.79 4.666-1.101 1.098-2.615 1.647-4.405 1.647-3.854 0-5.919-2.196-6.057-6.724 0-.823-2.753-1.235-8.259-1.235-4.267 0-7.984.823-11.15 2.47s-5.644 3.842-7.158 6.313c-1.514 2.607-2.615 4.94-3.166 7.273-.688 2.196-.964 4.391-.964 6.313 0 6.175 2.202 11.527 6.332 15.644 4.267 4.254 9.36 6.45 15.28 6.45 6.47 0 11.012-2.745 13.628-8.234.413-1.372.964-2.196 1.652-2.47.688-.412 1.652-.549 2.891-.549 3.166 0 4.818 1.235 4.818 3.705 0 .961-.413 2.058-1.101 3.705-.688 1.51-1.927 3.156-3.441 5.215-1.652 1.921-4.13 3.568-7.571 4.94s-7.296 2.058-11.701 2.058c-8.535 0-15.693-3.019-21.474-9.057-5.919-5.901-8.81-13.037-8.81-21.408z"/><use xlink:href="#a"/><use xlink:href="#b"/><path d="M1160.619 1147.728c0-3.294.551-6.587 1.79-10.018 1.101-3.294 2.891-6.587 5.231-9.881 2.34-3.156 5.781-5.764 10.049-7.822s9.223-3.019 14.867-3.019c13.628 0 20.51 3.294 20.51 10.018 0 1.921-.551 3.431-1.79 4.666-1.101 1.098-2.615 1.647-4.405 1.647-3.854 0-5.919-2.196-6.057-6.724 0-.823-2.753-1.235-8.259-1.235-4.267 0-7.984.823-11.15 2.47s-5.644 3.842-7.158 6.313c-1.514 2.607-2.615 4.94-3.166 7.273-.688 2.196-.964 4.391-.964 6.313 0 6.175 2.202 11.527 6.332 15.644 4.267 4.254 9.36 6.45 15.28 6.45 6.47 0 11.012-2.745 13.628-8.234.413-1.372.964-2.196 1.652-2.47.688-.412 1.652-.549 2.891-.549 3.166 0 4.818 1.235 4.818 3.705 0 .961-.413 2.058-1.101 3.705-.688 1.51-1.927 3.156-3.441 5.215-1.652 1.921-4.13 3.568-7.571 4.94s-7.296 2.058-11.701 2.058c-8.535 0-15.693-3.019-21.474-9.057-5.919-5.901-8.81-13.037-8.81-21.408z"/><use xlink:href="#c"/></g></g><path d="M455.991 1045.095l-.765 36.101 898.954-19.305s13.05-34.295 9.97-41.277c-3.09-6.982-908.159 24.482-908.159 24.482z" fill="#001226" fill-opacity=".17"/></g><path d="M472.357 1057.96h.202l7.604-.06 77.018-2.2 770.329-26.85a3.48 3.48 0 0 1 2.58 1.01c.69.68 1.07 1.61 1.04 2.57l-3.34 157.66-3.42 3.5-508.841 18.63-339.469 3.9a2.66 2.66 0 0 1-2.663-2.59l-2.999-112.05-1.103-41.21.056.03-.001-.16c.017-.52.144-1.49 1.338-2.05a2.47 2.47 0 0 1 1.669-.13zm851.693-21.98l-766.72 24.66-77.09 1.94-6.075.05 1.172 38.7 3.315 109.46 336.713-4.95 505.345-19.25 3.34-150.61z" class="N"/></g><path d="M384.796 1024.83l1.621 37.8 1320.643-41.43 3.21-39.055c-243.33-13.489-485.75-3.941-727.215.409l-598.259 42.276z" fill="#8f9aa6"/><path d="M384.326 1018.19c-3.6.25-6.343 3.32-6.188 6.93l1.678 37.79a6.61 6.61 0 0 0 6.769 6.32l660.385-19.74 660.28-23.07 5.02-4.79 3.21-39.057c.11-1.405-.35-2.797-1.27-3.86a5.23 5.23 0 0 0-3.65-1.784c-97.19-5.436-194.24-7.175-291.14-7.09-145.83.128-291.32 4.427-436.47 6.89l-.305.013-598.319 41.448zm1320.294-31.117c-95.2-5.102-190.26-6.727-285.18-6.497l-436.118 7.8-591.6 42.644 1.028 24.84 653.87-17.78 655.61-21.94 2.39-29.067z" class="N"/><path d="M403.507 936.916c354.953-3.445 667.113-.825 998.453-34.762 78.88 22.408 198.16 53.831 309.5 79.798L384.702 1029.73c.471-28.53 11.559-68.259 18.805-92.814z" fill="#aab7c6"/><path d="M397.115 935.03c-4.391 14.965-10.179 35.504-14.183 55.773-2.691 13.627-4.571 27.137-4.746 38.817-.029 1.78.669 3.49 1.933 4.74s2.985 1.93 4.762 1.88l663.509-21.93 663.3-27.123a5.23 5.23 0 0 0 4.98-4.752c.25-2.607-1.47-4.992-4.02-5.587l-155.05-38.229-154.16-41.67-2.03-.178c-134.62 13.648-266.06 21.283-398.5 25.694-193.395 6.441-388.899 6.039-599.468 7.787l-6.327 4.778zm1004.375-27.387c-134.48 13.886-265.84 21.733-398.18 26.463-191.964 6.861-386.02 7.131-594.802 9.421-4.126 14.081-9.108 32.065-12.677 49.845-2.053 10.228-3.644 20.388-4.299 29.658l656.448-20.01 625.49-24.661-118.52-29.473-153.46-41.243z" class="N"/></g><g transform="matrix(1.04147 .014737 -.016122 1.13934 -22.0414 -170.167)"><path d="M603.764 978.379c-20.377 3.372-85.46 2.117-85.46 2.117l-4.128 25.341c21.156 15.92 66.401 9.12 98.593 7.19l-9.005-34.648zm681.033-39.576l93.95-9.934 116.43 33.509c-15.39 21.503-56.18 26.062-82.86 26.509l-127.52-50.084z" fill="#8f9aa6"/><g transform="matrix(.996054 .015436 -.018356 1.18445 26.314 -205.258)"><use xlink:href="#d" fill="#4976b7"/><clipPath id="H"><use xlink:href="#d"/></clipPath><g clip-path="url(#H)"><g transform="matrix(1.00372 -.013081 .015555 .844072 -23.2191 173.597)"><path d="M1299.58 930.39c35.37 2.649 105.07 30.544 117.7 43.979 27.98-8.513 57.04-59.146 41.24-81.38-26-36.611-1.9-6.51-19.52-9.721-38.31-6.975-10.28-12.282-13.42-14.193s-129.91 61.022-126 61.315z" fill="#345f9e"/></g><g opacity=".85" transform="matrix(-.19184 .00957 -.048995 -.017907 1440.22 987.174)"><g transform="matrix(8.56611 0 0 8.56611 -2465.92 -4532.64)" class="C E"><path d="M312.741 569.942v-2.328c0-.216 0-.36.024-.48s.096-.216.24-.336c.12-.12.312-.168.576-.168.288 0 .48.048.6.144.096.12.192.288.264.552.456 1.416 1.464 2.136 3.048 2.136 1.032 0 1.8-.168 2.304-.48.504-.336.768-.72.768-1.2 0-.312-.096-.576-.288-.768-.192-.216-.48-.408-.84-.528-.384-.144-.696-.24-.936-.288-.264-.072-.6-.12-1.032-.192l-1.368-.216-1.224-.312c-.504-.168-.888-.336-1.128-.528-.264-.192-.504-.456-.72-.768-.192-.336-.288-.72-.288-1.128 0-.216.024-.408.072-.624.072-.216.192-.48.384-.744s.456-.504.768-.72.744-.384 1.32-.528 1.248-.216 2.016-.216c1.008 0 1.872.168 2.568.504.096-.336.336-.504.72-.504.48 0 .72.336.72.984v1.656c0 .216 0 .36-.024.48-.024.096-.096.216-.24.336-.12.12-.312.168-.576.168-.216 0-.408-.048-.528-.12-.144-.096-.216-.192-.24-.288s-.024-.24-.048-.408c-.096-.888-.888-1.344-2.376-1.344h-.024c-1.056 0-1.824.144-2.304.408-.504.264-.744.6-.744.96 0 .672.768 1.104 2.328 1.32l1.632.288c2.568.408 3.864 1.44 3.864 3.12 0 .264-.024.504-.096.768s-.216.528-.408.816c-.216.312-.48.576-.816.792-.312.216-.768.408-1.32.552s-1.2.216-1.92.216c-1.248 0-2.28-.312-3.12-.912-.192.6-.48.912-.888.912-.48 0-.72-.336-.72-.984zm11.469-8.76c0-.48.336-.744.984-.744h2.088v-1.968c0-.216 0-.384.024-.48 0-.12.096-.216.216-.336.144-.12.336-.168.6-.168.36 0 .6.072.696.24.072.168.12.408.12.744v1.968h3.936c.192 0 .36 0 .456.024.096 0 .216.072.312.192.12.12.192.312.192.528 0 .48-.312.72-.96.72h-3.936v5.712a3.7 3.7 0 0 0 .048.576c.024.144.072.336.168.576.12.216.288.408.576.504.264.12.624.192 1.056.192.264 0 .504-.048.768-.12s.528-.24.792-.528c.24-.264.384-.624.384-1.08 0-.168 0-.312.024-.432s.096-.216.24-.312c.12-.12.312-.168.552-.168.264 0 .456.048.576.168.144.12.216.216.24.312.024.12.024.264.024.456 0 .984-.36 1.776-1.128 2.328a4.24 4.24 0 0 1-2.592.84c-.984 0-1.776-.264-2.424-.792-.648-.504-.96-1.296-.96-2.376v-5.856h-2.112c-.648 0-.96-.24-.96-.72zm13.318 6.528c0-1.104.648-1.992 1.944-2.592 1.32-.624 3.072-.96 5.256-.984 0-.816-.264-1.416-.816-1.824s-1.296-.624-2.256-.624l-.864.024c-.24.024-.384.048-.432.072s-.072.096-.072.192c-.024.384-.144.672-.36.84-.216.192-.456.264-.696.264a1.09 1.09 0 0 1-.768-.288c-.216-.192-.312-.48-.312-.816 0-1.176 1.152-1.752 3.432-1.752h.048c1.584 0 2.784.384 3.576 1.128.768.744 1.176 1.608 1.176 2.592v5.184c.336.12.816.192 1.44.192.648 0 .96.24.96.72 0 .24-.072.432-.192.528-.12.12-.24.168-.384.192-.12.024-.336.024-.624.024-1.368 0-2.208-.264-2.592-.768-.936.6-2.088.912-3.504.912-1.176 0-2.136-.312-2.856-.96-.744-.624-1.104-1.392-1.104-2.256zm1.656 0c0 .48.24.888.696 1.224.456.36 1.056.528 1.776.528.864 0 1.56-.144 2.136-.408.288-.12.504-.264.648-.456s.24-.36.264-.48l.024-.552v-2.016c-1.704.048-3.072.264-4.056.672s-1.488.888-1.488 1.488zm10.222-6.528c0-.48.336-.744.984-.744h2.088v-1.968c0-.216 0-.384.024-.48 0-.12.096-.216.216-.336.144-.12.336-.168.6-.168.36 0 .6.072.696.24.072.168.12.408.12.744v1.968h3.936c.192 0 .36 0 .456.024.096 0 .216.072.312.192.12.12.192.312.192.528 0 .48-.312.72-.96.72h-3.936v5.712a3.7 3.7 0 0 0 .048.576c.024.144.072.336.168.576.12.216.288.408.576.504.264.12.624.192 1.056.192.264 0 .504-.048.768-.12s.528-.24.792-.528c.24-.264.384-.624.384-1.08 0-.168 0-.312.024-.432s.096-.216.24-.312c.12-.12.312-.168.552-.168.264 0 .456.048.576.168.144.12.216.216.24.312.024.12.024.264.024.456 0 .984-.36 1.776-1.128 2.328a4.24 4.24 0 0 1-2.592.84c-.984 0-1.776-.264-2.424-.792-.648-.504-.96-1.296-.96-2.376v-5.856h-2.112c-.648 0-.96-.24-.96-.72zm13.869 8.88c0-.48.336-.744.984-.744h2.904v-7.416h-2.712c-.648 0-.984-.24-.984-.744 0-.48.336-.72.984-.72h3.408c.408 0 .648.072.792.192.12.144.168.408.168.792v7.896h2.52c.648 0 .984.24.984.744 0 .48-.336.72-.984.72h-7.08c-.648 0-.984-.24-.984-.72zm3.48-11.904c-.216-.24-.336-.528-.336-.864s.12-.624.336-.84c.24-.24.528-.36.864-.36s.624.12.84.36c.24.216.36.504.36.84s-.12.624-.36.84c-.216.24-.504.36-.84.36s-.624-.12-.864-.336z"/><use xlink:href="#e"/><path d="M388.351 565.598a5.1 5.1 0 0 1 .312-1.752c.192-.576.504-1.152.912-1.728.408-.552 1.008-1.008 1.752-1.368s1.608-.528 2.592-.528c2.376 0 3.576.576 3.576 1.752 0 .336-.096.6-.312.816-.192.192-.456.288-.768.288-.672 0-1.032-.384-1.056-1.176 0-.144-.48-.216-1.44-.216-.744 0-1.392.144-1.944.432s-.984.672-1.248 1.104c-.264.456-.456.864-.552 1.272-.12.384-.168.768-.168 1.104 0 1.08.384 2.016 1.104 2.736.744.744 1.632 1.128 2.664 1.128 1.128 0 1.92-.48 2.376-1.44.072-.24.168-.384.288-.432.12-.072.288-.096.504-.096.552 0 .84.216.84.648 0 .168-.072.36-.192.648-.12.264-.336.552-.6.912-.288.336-.72.624-1.32.864s-1.272.36-2.04.36c-1.488 0-2.736-.528-3.744-1.584-1.032-1.032-1.536-2.28-1.536-3.744zm11.133 4.464c0-.48.336-.744.984-.744h1.056v-11.736h-1.08c-.648 0-.96-.24-.96-.72 0-.504.336-.744.984-.744h1.752c.408 0 .648.072.768.192.12.144.192.408.192.792v4.464c.84-.84 1.896-1.272 3.144-1.272 2.064 0 3.12 1.152 3.12 3.456v5.568h1.056c.672 0 .984.24.984.744 0 .48-.312.72-.96.72h-3.672c-.648 0-.984-.24-.984-.72s.336-.744.984-.744h.936v-5.448c0-.744-.12-1.296-.336-1.608-.24-.336-.672-.504-1.272-.504-.744 0-1.416.288-2.04.84-.648.552-.96 1.392-.96 2.472v4.248h1.056c.648 0 .984.24.984.744 0 .48-.312.72-.96.72h-3.816c-.648 0-.96-.24-.96-.72zm15.238-.72c-1.08-1.032-1.608-2.304-1.608-3.768a5.31 5.31 0 0 1 1.512-3.792c1.008-1.032 2.232-1.56 3.648-1.56 1.488 0 2.64.48 3.432 1.464.816.96 1.224 2.16 1.224 3.624 0 .216-.024.384-.072.504s-.12.216-.24.264c-.096.072-.192.096-.288.12h-.36-7.152c.192.984.672 1.776 1.44 2.376a3.96 3.96 0 0 0 2.544.888c1.248 0 2.088-.48 2.496-1.44.072-.24.168-.384.288-.432.12-.072.288-.096.504-.096.552 0 .84.216.84.648 0 .192-.072.432-.24.72-.168.264-.408.576-.72.912-.312.312-.768.6-1.344.816-.6.216-1.248.336-1.992.336-1.536 0-2.832-.528-3.912-1.584zm.12-4.584h6.384c-.096-1.128-.432-1.896-.984-2.376-.552-.456-1.224-.696-1.968-.696-.816 0-1.56.288-2.208.864-.624.6-1.056 1.32-1.224 2.208zm11.302.84a5.1 5.1 0 0 1 .312-1.752c.192-.576.504-1.152.912-1.728.408-.552 1.008-1.008 1.752-1.368s1.608-.528 2.592-.528c2.376 0 3.576.576 3.576 1.752 0 .336-.096.6-.312.816-.192.192-.456.288-.768.288-.672 0-1.032-.384-1.056-1.176 0-.144-.48-.216-1.44-.216-.744 0-1.392.144-1.944.432s-.984.672-1.248 1.104c-.264.456-.456.864-.552 1.272-.12.384-.168.768-.168 1.104 0 1.08.384 2.016 1.104 2.736.744.744 1.632 1.128 2.664 1.128 1.128 0 1.92-.48 2.376-1.44.072-.24.168-.384.288-.432.12-.072.288-.096.504-.096.552 0 .84.216.84.648 0 .168-.072.36-.192.648-.12.264-.336.552-.6.912-.288.336-.72.624-1.32.864s-1.272.36-2.04.36c-1.488 0-2.736-.528-3.744-1.584-1.032-1.032-1.536-2.28-1.536-3.744zm11.349 4.44c0-.48.312-.72.96-.72h1.176v-11.736h-1.176c-.192 0-.336 0-.456-.024-.096 0-.192-.072-.312-.192s-.192-.312-.192-.528c0-.48.312-.72.96-.72h1.56c.408 0 .648.072.768.192.12.144.192.408.192.792v8.448l3.888-3.648h-.888c-.648 0-.96-.24-.96-.72 0-.216.048-.408.192-.528.12-.12.216-.192.312-.192.12-.024.264-.024.456-.024h3.696c.648 0 .984.24.984.744 0 .48-.336.72-.984.72h-.84l-2.952 2.76 3.576 4.656h.744c.648 0 .984.24.984.744 0 .48-.336.72-.984.72h-2.832c-.648 0-.96-.24-.96-.72 0-.24.072-.408.192-.528s.24-.168.384-.192c.168-.024.408-.024.768-.024l-2.856-3.72-1.92 1.776v1.944h1.176c.192 0 .336 0 .456.024a.7.7 0 0 1 .336.192.92.92 0 0 1 .168.528c0 .48-.312.72-.96.72h-3.696c-.192 0-.336 0-.456-.024-.096-.024-.192-.072-.312-.192s-.192-.288-.192-.528z"/></g><g class="D I"><g class="P"><circle cx="1625.158" cy="1085.121" r="457.958"/><circle cx="2087.897" cy="1085.121" r="457.958"/><circle cx="1555.149" cy="784.965" r="204.987"/><circle cx="1557.017" cy="1385.281" r="204.987"/></g><circle cx="725.81" cy="1066.76" r="89.332" stroke-width="12.77" transform="matrix(1.33715 0 0 1.33715 203.027 -555.992)"/><g class="P"><circle cx="1201.589" cy="1327.283" r="109.222"/><path d="M2376.018 836.891h344.988v105.742h-344.988zm-14.84 354.88h344.418v107.704h-344.418zm-411.91-691.753h80.095v231.161h-80.095zm8.6 964.498h78.007v227.842h-78.007z"/></g><path d="M2034.995 508.7h830.51" stroke-dasharray="102.17,100.99,0,0" stroke-width="17.074"/><g stroke-width="17.071"><path d="M2578.365 836.163h542.775" stroke-dasharray="182.83,180.7,0,0"/><path d="M2032.766 1679.19h856.899" stroke-dasharray="102.14,100.95,0,0"/></g><path d="M2577.055 1303.398h501.746" stroke-dasharray="196.52,194.24,0,0" stroke-width="17.072"/></g><g transform="matrix(-4.7077 -1.22948 9.16807 -36.4544 -2041.549 37334.6)"><g class="C"><path d="M867.008 980.27l13.386.143-7.916-10.794-5.47 10.651zm-36.805-18.899l-7.916-10.795 13.386.144-5.47 10.651z"/></g><path d="M871.873 976.038l-41.065-21.087" stroke-width="3.99" stroke-dasharray="2.49,11.18,0,0" class="D I"/></g><g transform="matrix(-4.707705 -1.229475 9.168056 -36.454383 -2041.548826 37334.536372)"><g class="C"><path d="M812.247 973.129l14.62.157-8.646-11.79-5.974 11.633z"/><path d="M812.319 973.166l-8.647-11.79 14.62.157-5.973 11.633z"/></g><path d="M817.56 968.507l-4.581-2.352" stroke-width="4.36" stroke-dasharray="2.72,12.21,0,0" class="D I"/></g><g transform="matrix(-4.7077 -1.22948 9.16807 -36.4544 -2041.555 37334.529)"><g class="C"><path d="M1269.99 955.563l7.94-4.322-8.22-3.763.28 8.085zm-530.527 18.346l-8.225-3.763 7.946-4.322.279 8.085z"/></g><path d="M1271.46 951.464l-533.754 18.459" stroke-width="2.7" stroke-dasharray="1.69,7.55,0,0" class="D I"/></g><g transform="matrix(46.4744 0 0 46.4744 -146414 -66472.3)" class="C E"><path d="M3218.777 1465.599c0-.251.062-.462.186-.633s.27-.256.442-.256a.49.49 0 0 1 .329.127.47.47 0 0 1 .053-.104c.014-.014.034-.023.062-.023.056 0 .084.039.084.115v.391c0 .025 0 .045-.003.056s-.011.025-.028.039-.037.02-.068.02c-.056 0-.09-.028-.096-.082-.023-.135-.065-.231-.129-.284s-.129-.084-.194-.084c-.115 0-.217.068-.307.205s-.138.31-.138.515a.91.91 0 0 0 .135.509c.087.141.191.208.307.208.082 0 .149-.037.208-.11s.096-.189.113-.338h-.118c-.023 0-.039 0-.053-.003s-.023-.008-.039-.025-.02-.034-.02-.059c0-.056.037-.084.113-.084h.335c.076 0 .115.028.115.084 0 .025-.006.045-.02.059s-.031.023-.045.025-.037.003-.068.003v.473c0 .025 0 .042-.003.056s-.011.025-.025.039-.037.02-.068.02-.053-.006-.07-.02-.023-.025-.025-.039-.003-.034-.003-.059c-.087.099-.197.149-.335.149-.169 0-.318-.084-.442-.256s-.186-.383-.186-.636z"/><use xlink:href="#f"/><path d="M3221.654 1467c0-.059.039-.087.115-.087h.124v-1.495h-.127c-.076 0-.113-.028-.113-.084s.039-.087.115-.087h.205c.048 0 .079.008.093.025s.02.048.02.096a.51.51 0 0 1 .357-.138c.149 0 .279.059.386.18a.65.65 0 0 1 .163.442c0 .177-.059.326-.172.445s-.251.18-.408.18c-.124 0-.231-.048-.326-.144v.58h.124c.076 0 .115.028.115.087s-.037.084-.113.084h-.448c-.076 0-.113-.028-.113-.084zm.433-1.078c0 .084.028.169.084.253a.27.27 0 0 0 .234.129c.104 0 .194-.042.273-.129s.121-.194.121-.324c0-.124-.037-.228-.11-.318s-.158-.132-.262-.132a.34.34 0 0 0-.236.096.29.29 0 0 0-.104.22v.205zm1.047.454c0-.056.039-.087.115-.087h.124v-1.376h-.127c-.076 0-.113-.028-.113-.084s.039-.087.115-.087h.205c.048 0 .076.008.09.023s.023.048.023.093v.524a.5.5 0 0 1 .369-.149c.242 0 .366.135.366.405v.653h.124c.079 0 .115.028.115.087s-.037.084-.113.084h-.431c-.076 0-.115-.028-.115-.084s.039-.087.115-.087h.11v-.639c0-.087-.014-.152-.039-.189s-.079-.059-.149-.059c-.087 0-.166.034-.239.099s-.113.163-.113.29v.498h.124c.076 0 .115.028.115.087s-.037.084-.113.084h-.448c-.076 0-.113-.028-.113-.084zm1.789-.085a.59.59 0 0 1-.189-.442c0-.172.059-.321.177-.445a.58.58 0 0 1 .428-.183c.175 0 .31.056.402.172s.144.253.144.425c0 .025-.003.045-.008.059s-.014.025-.028.031-.023.011-.034.014h-.042-.839a.45.45 0 0 0 .169.279c.087.07.189.104.298.104.146 0 .245-.056.293-.169.008-.028.02-.045.034-.051s.034-.011.059-.011c.065 0 .099.025.099.076 0 .023-.008.051-.028.084a.69.69 0 0 1-.084.107c-.036.039-.09.07-.158.096s-.146.039-.234.039a.63.63 0 0 1-.459-.186zm.014-.538h.749c-.011-.132-.051-.222-.115-.279s-.144-.082-.231-.082a.38.38 0 0 0-.259.101c-.073.07-.124.155-.144.259z"/><path d="M3226.15 1466.373c0-.056.037-.084.113-.084h.228v-.87h-.228c-.023 0-.042 0-.053-.003s-.025-.011-.037-.025-.023-.034-.023-.059c0-.056.037-.084.113-.084h.31c.048 0 .079.008.093.023s.02.048.02.093v.096c.132-.152.293-.228.478-.228.053 0 .101.006.138.02s.068.028.084.048a.15.15 0 0 1 .034.056.11.11 0 0 1 .011.051c0 .037-.011.065-.037.087s-.051.034-.082.034-.062-.011-.084-.037-.034-.053-.037-.087c-.16 0-.284.053-.372.158a.57.57 0 0 0-.135.377v.352h.312c.076 0 .115.028.115.087s-.039.084-.115.084h-.735c-.023 0-.042 0-.053-.003s-.025-.008-.037-.023-.023-.034-.023-.062zm1.445.003c0-.056.039-.087.115-.087h.076v-1.376h-.076c-.076 0-.115-.028-.115-.087s.037-.084.113-.084h.636a.47.47 0 0 1 .352.135c.087.09.132.189.132.301a.35.35 0 0 1-.084.231c-.053.07-.127.121-.22.152a.49.49 0 0 1 .265.16c.065.082.099.172.099.27a.47.47 0 0 1-.132.324c-.087.096-.205.146-.355.146h-.692c-.076 0-.113-.028-.113-.084zm.386-.087h.357c.113 0 .2-.031.262-.093a.29.29 0 0 0 .093-.211.37.37 0 0 0-.082-.225c-.053-.07-.135-.107-.242-.107h-.388v.636zm0-.808h.29c.121 0 .214-.031.273-.096s.09-.132.09-.205c0-.065-.023-.124-.07-.183s-.124-.084-.231-.084h-.352v.569zm1.189.371c0-.175.056-.321.172-.445a.53.53 0 0 1 .405-.186c.158 0 .293.062.405.183a.63.63 0 0 1 .172.448.61.61 0 0 1-.172.442.54.54 0 0 1-.405.183.53.53 0 0 1-.405-.18.61.61 0 0 1-.172-.445zm.194-.02c0 .129.037.239.113.332s.166.141.27.141.194-.048.27-.138.113-.205.113-.335a.44.44 0 0 0-.115-.312c-.076-.084-.163-.127-.267-.127s-.191.042-.267.127a.43.43 0 0 0-.115.312zm1.196-.498c0-.056.039-.087.115-.087h.245v-.231c0-.025 0-.045.003-.056s.011-.025.025-.039.039-.02.07-.02c.042 0 .07.008.082.028s.014.048.014.087v.231h.462a.25.25 0 0 1 .053.003c.011.003.025.008.037.023s.023.037.023.062c0 .056-.037.084-.113.084h-.462v.67c0 .028.003.048.006.068s.008.039.02.068.034.048.068.059a.38.38 0 0 0 .124.023.35.35 0 0 0 .09-.014c.031-.008.062-.028.093-.062s.045-.073.045-.127c0-.02 0-.037.003-.051s.011-.025.028-.037.037-.02.065-.02.053.006.068.02.025.025.028.037a.29.29 0 0 1 .003.053c0 .115-.042.208-.132.273s-.189.099-.304.099a.43.43 0 0 1-.284-.093c-.076-.062-.113-.152-.113-.279v-.687h-.248c-.076 0-.113-.028-.113-.084zm-11.839 2.301c0-.056.039-.084.115-.084h.287c.076 0 .115.028.115.084 0 .028-.008.048-.023.062s-.031.023-.048.023l-.087.003.273 1.095a2.07 2.07 0 0 1 .051.251h.003c.011-.073.048-.234.11-.484l.217-.861c-.042 0-.07 0-.087-.003a.08.08 0 0 1-.048-.023c-.014-.015-.023-.034-.023-.062 0-.056.037-.084.115-.084h.287c.076 0 .115.028.115.084 0 .028-.008.048-.023.062s-.031.023-.048.023l-.09.003-.372 1.466c-.008.034-.02.059-.037.073s-.034.023-.048.025-.039.006-.07.006a.4.4 0 0 1-.073-.006.08.08 0 0 1-.045-.028c-.014-.014-.028-.039-.037-.073l-.372-1.464c-.039 0-.07 0-.087-.003s-.037-.008-.051-.023-.023-.034-.023-.062zm1.725.315c0-.053.034-.084.104-.087.127-.014.231-.104.307-.276.017-.045.045-.068.084-.068.056 0 .084.039.084.115v1.464h.256c.023 0 .039 0 .051.003s.025.008.039.023.023.037.023.062c0 .056-.037.084-.113.084h-.706c-.076 0-.113-.028-.113-.084 0-.025.006-.045.02-.062s.028-.02.042-.023.028-.003.051-.003h.256v-1.188c-.096.082-.191.124-.293.124-.062 0-.093-.028-.093-.084zm1.734 1.143c0-.045.017-.084.051-.121s.076-.053.127-.053a.17.17 0 0 1 .175.175c0 .045-.017.084-.048.121s-.076.056-.127.056c-.045 0-.087-.017-.124-.053s-.053-.076-.053-.124z"/><use xlink:href="#g"/><path d="M3224.704 1468.887c0-.045.011-.076.037-.099s.053-.034.09-.034.065.011.087.037.037.053.037.087-.011.065-.034.087c.031.059.09.099.169.127s.158.037.234.037c.121 0 .222-.034.298-.104s.115-.152.115-.245-.037-.172-.113-.242-.18-.11-.31-.11h-.129c-.023 0-.039 0-.053-.003s-.025-.008-.039-.023-.02-.037-.02-.062c0-.037.011-.062.037-.07a.75.75 0 0 1 .166-.023c.113-.006.2-.034.262-.084.079-.065.118-.146.118-.245 0-.065-.031-.118-.096-.163a.41.41 0 0 0-.236-.065c-.149 0-.253.028-.312.087.017.017.025.042.025.076s-.011.068-.039.093-.053.034-.084.034-.062-.011-.087-.034-.039-.056-.039-.099c0-.099.048-.18.144-.239s.225-.09.391-.09c.158 0 .284.039.383.115s.146.172.146.281a.5.5 0 0 1-.236.414.57.57 0 0 1 .231.183.44.44 0 0 1 .087.267c0 .138-.056.259-.172.363s-.259.158-.436.158-.324-.037-.442-.115-.177-.175-.177-.298zm1.48-1.148v-.118c0-.025 0-.042.003-.056s.011-.025.025-.039.037-.02.068-.02c.048 0 .079.014.09.045h.929c.023 0 .039 0 .051.003s.025.011.039.023.023.034.023.062c0 .017-.003.031-.008.042s-.025.028-.053.053l-.129.138a2.07 2.07 0 0 0-.155.214 1.97 1.97 0 0 0-.16.293c-.045.101-.084.222-.118.366a2.05 2.05 0 0 0-.053.445c0 .039-.008.068-.028.084s-.039.028-.068.028c-.065 0-.099-.045-.099-.132s.008-.186.023-.287a2.69 2.69 0 0 1 .084-.352 1.93 1.93 0 0 1 .18-.411 2.02 2.02 0 0 1 .296-.397h-.743l-.003.073c-.003.011-.011.025-.025.039s-.037.02-.07.02c-.042 0-.07-.008-.079-.028a.22.22 0 0 1-.017-.087z"/></g></g></g><path d="M527.437 984.755c-.443-.872-5.073-10.303-5.296-23.602-.118-7.049 1-15.186 4.638-23.71l.08-.002c.165-.421.642-.705 1.181-.704s1.014.286 1.179.707l.001.018c6.587 15.811 16.179 26.806 38.72 33.75 25.919 7.985 68.691 10.671 142.935 9.303 44.798-.827 195.746-7.752 328.155-14.941l218.16-14.699c23.91-3.964 60.66-8.767 81.43-20.442 8.12-4.565 13.76-10.186 14.98-17.286 1-5.801-.95-12.555-6.73-20.485-.29-.398-.25-.889.11-1.254.35-.366.95-.538 1.53-.439 10.59 1.793 23.67 3.713 36.61 5.499l55.19 7.093c10.65 1.044 19.8 7.242 25.68 16.043 7.03 10.509 9.42 24.714 4.31 37.818-6.67 17.103-26.03 32.415-64.53 35.098-96.18 6.65-306.09 16.42-488.878 23.62l-195.712 7.02c-74.314 2.27-125.079 3.11-131.002 1.94-16.554-3.28-28.895-8.5-38.037-14.1-19.151-11.733-24.313-25.163-24.704-26.245zm823.593-90.989c4.9 7.527 6.41 14.032 5.41 19.669-1.36 7.68-7.39 13.798-16.19 18.72-21.08 11.785-58.29 16.691-82.52 20.668-18.55 3.054-112.61 8.931-218.53 14.66l-328.273 14.929c-74.756 1.381-117.815-1.394-143.914-9.433-21.912-6.749-32.05-17.169-38.856-31.962-2.567 7.214-3.351 14.067-3.211 20.096.315 13.493 5.27 22.848 5.27 22.848a.81.81 0 0 1 .059.136s4.704 13.381 23.842 24.993c8.882 5.38 20.863 10.38 36.903 13.5 5.886 1.15 56.259-.02 130.011-2.4l195.666-7.13 488.733-23.525c36.42-2.493 54.91-16.778 61.26-32.941 4.87-12.365 2.68-25.779-3.9-35.724-5.27-7.954-13.34-13.707-22.94-14.683-.01-.001-.03-.003-.04-.005l-55.27-7.308-33.51-5.108z" class="C"/></g><use xlink:href="#h" fill="#4976b7"/><clipPath id="I"><use xlink:href="#h"/></clipPath><g clip-path="url(#I)"><path d="M1302.3 871.606l-6.16 9.716c46.23 9.562 85.22 20.585 125.32 35.412l7.9-13.095c3.01-4.881-125.96-43.505-127.06-32.033z" fill="#4b7bc1"/></g><path d="M1448.39 888.27l.15.044c.82.21 1.27.893 1.03 1.543-.25.651-1.09 1.034-1.92.867v.186c-8.31-2.002-15.9-1.348-22.41.696-8.14 2.555-14.61 7.26-18.72 11.665-7.18 7.708-9.43 15.915-9.34 23.291.16 13.481 8.04 24.211 8.04 24.211.27.369.23.863-.11 1.185s-.88.384-1.29.149c-14.67-8.396-30.63-15.698-48.11-21.692-15.96-5.469-33.17-9.846-51.8-13.024-.22-.037-.4-.168-.5-.353 0 0-5.04-10.084-1.36-22.696 1.79-6.127 5.62-12.861 13.12-19.32 4.76-4.104 10.18-6.482 15.22-7.845 9.38-2.536 17.44-1.538 17.5-1.527l60.64 12.414c12.74 2.884 25.28 6.004 37.78 9.602a43.51 43.51 0 0 1 2.13.439l-.05.165zm-13.38-1.259c-8.93-2.501-17.93-4.79-27.03-6.946-19.55-4.63-39.57-8.655-60.38-12.926 0 0-7.74-1.011-16.78 1.375-4.85 1.281-10.07 3.542-14.67 7.463-7.29 6.239-11.05 12.746-12.79 18.684-3.21 10.912.39 19.868 1.15 21.57 18.6 3.101 35.8 7.42 51.77 12.785 16.27 5.467 31.26 12.025 45.14 19.557-2.51-4.308-6.38-12.471-6.6-21.977-.18-7.851 2.12-16.607 9.68-24.882 4.32-4.734 11.14-9.808 19.78-12.615 3.32-1.082 6.91-1.826 10.73-2.088z" class="C"/></g><g transform="translate(-19.436 -26.327)"><g transform="matrix(1.06605 .041312 -.041312 1.06605 -30.0873 -83.8113)"><path d="M1014.635 794.422c-3.91 10.819-9.99 38.683 2.02 40.101s29.34 3.054 33.66-9.44.28-30.687.28-30.687-32.06-10.794-35.96.026z" class="C"/><path d="M1008.685 792.278c-2.513 7.542-5.755 22.592-4.474 32.867 1.049 8.411 5.014 13.99 11.814 14.662 7.53.78 16.96 1.472 24.48-.535 6.73-1.796 12.1-5.564 14.51-12.563 1.5-4.216 2.16-9.018 2.36-13.673.45-10.283-1.48-19.815-1.48-19.815-.41-1.855-1.77-3.36-3.57-3.967 0 0-16.62-5.848-28.24-5.634-7.7.143-13.32 3.329-15.4 8.658zm37.26 6.43c-3.33-.899-9.06-2.275-14.71-2.871-2.85-.301-5.68-.374-8.1-.029-1.07.153-2.07 1.433-2.67 1.044-1.77 4.605-4.01 12.296-4.87 19.502-.49 4.053-.66 7.931.22 10.809.3.973.51 1.947 1.46 2.077 6.35.841 14.33 1.958 20.72.358 3.45-.862 6.38-2.578 7.61-6.14 1.41-4.196 1.7-9.109 1.56-13.589-.14-4.462-.74-8.518-1.22-11.161z" class="B"/><g transform="matrix(-1.08022 .050409 .054972 1.178 2092.06 -190.024)"><path d="M1073.98 777.46c5.13 12.41-14.15 19.962-30.47 22.7-12.9 2.164-25.36 2.033-44.211-.409-9.865-1.279-16.048-4.3-19.884-13.64-7.356-17.909 9.261-28.644 25.355-31.928 23.88-4.872 58.65-2.275 69.21 23.277z" fill="#ddd0ca"/><path d="M1079.38 775.584c2.55 6.458.86 12.005-3.71 16.599-6.37 6.405-19.42 10.806-31.23 12.637-6.07.949-12.04 1.421-18.55 1.407-7.88-.018-16.56-.731-27.248-2.212-5.855-.796-10.56-2.195-14.386-4.73-3.814-2.527-6.852-6.163-9.098-11.703-3.439-8.362-2.373-15.407 1.147-21.156 5.204-8.498 16.34-14.169 27.435-16.506 15.32-3.297 34.88-3.572 50.57 2.528 11 4.282 20.13 11.662 25.07 23.136zm-10.8 3.753c-4.4-11.123-14.17-17.294-25.37-20.261-12.22-3.238-26.09-2.816-37.4-.631-7.18 1.412-14.565 4.376-19.218 9.132-4.146 4.238-5.831 9.957-2.92 17.064 1.517 3.645 3.398 6.128 5.936 7.77 2.745 1.776 6.172 2.561 10.348 3.075 8.254.995 15.244 1.553 21.584 1.656 7.63.123 14.28-.433 21.04-1.643 7.97-1.436 16.73-4.07 22.32-8.029 3.08-2.184 5.12-4.801 3.68-8.133z" class="B"/></g><ellipse cx="1032.68" cy="748.313" rx="23.052" ry="14.279" transform="matrix(1.42629 0 0 1.48734 -432.561 -362.754)" class="B"/></g><g transform="matrix(.943836 0 0 .958527 83.1125 41.2748)"><use xlink:href="#i" class="C"/><clipPath id="J"><use xlink:href="#i"/></clipPath><g clip-path="url(#J)"><ellipse cx="1243.38" cy="688.24" rx="28.052" ry="27.355" transform="matrix(.990894 0 0 .991586 -3.99753 27.7174)" class="B"/><ellipse cx="1213" cy="660.137" rx="16.267" ry="16.372" transform="matrix(.766352 0 0 .731413 286.622 213.966)" class="C"/><path d="M1076.477 535.426c-23.002 54.155-48.314 163.194 38.079 206.548 32.41 16.266 103.98 35.554 157.899.211 41.395-27.138 92.739-145.87 30.683-196.756-22.96-18.82-21.709-44.587-25.227-49.259s78.743 44.518 78.743 44.518 84.634 129.899 82.133 120.064-233.039 215.924-235.91 214.682c-2.861-1.24-236.649-134.137-239.025-140.477s38.439-258.564 42.751-262.621c4.302-4.056 105.4-20.584 69.875 63.091z" fill="#ebebeb"/></g><path d="M1037.35 632.834c-4.17 41.474 7.19 76.455 33.04 102.665 30.54 30.958 81.87 49.76 153.05 51.41 32.74.775 61.65-15.094 83.81-40.163 29.12-32.943 46.51-81.838 45.47-127.98-.78-36.645-23.89-73.142-57.98-99.275-30.81-23.613-70.48-38.735-110.08-37.997-44.22.799-78.68 19.708-103.26 47.423-25.38 28.608-40.15 66.711-44.05 103.917zm14.24 1.418c3.46-34.454 16.86-69.825 40.23-96.406 22.1-25.135 53.17-42.335 93.12-43.227 36.61-.795 73.3 13.194 101.84 34.963 30.91 23.579 52.38 56.296 53.14 89.457.77 35.616-10.17 73.003-29.39 102.236-20.69 31.466-51 53.569-86.75 52.625-53.33-1.437-94.91-12.609-124.06-31.952-36.62-24.296-52.97-61.611-48.13-107.696z" class="B"/></g><g transform="matrix(1.01537 0 0 1.01537 2.54945 -31.183)"><use xlink:href="#j" class="C"/><clipPath id="K"><use xlink:href="#j"/></clipPath><g clip-path="url(#K)"><ellipse cx="838.364" cy="721.948" rx="25.258" ry="25.743" transform="matrix(1.15345 0 0 1.14783 -133.84 -92.2365)" class="B"/><ellipse cx="802.467" cy="680.909" rx="8.425" ry="9.541" transform="matrix(1.51515 0 0 1.4172 -394.927 -246.838)" class="C"/><path d="M723.703 527.16c-105.998 123.847-58.6 241.969 53.023 267.55 111.351 25.518 165.92-33.032 181.253-96.582 13.712-56.835-16.921-123.633-16.921-123.633l84.106 79.535-69.692 206.628s-315.806-69.354-317.377-59.639-25.798-220.204-28.978-222.626 89.043-54.216 114.586-51.234z" fill="#ebebeb"/></g><path d="M641.461 678.498c5.945 47.28 30.647 84.504 65.118 110.149 33.928 25.242 77.348 39.245 121.418 40.39 47.326 1.261 89.134-17.805 117.629-49.373 27.91-30.919 43.103-73.864 37.903-121.646-5.443-51.297-30.445-89.035-62.545-114.383-38.431-30.347-87.151-42.81-124.985-39.297-36.187 3.327-79.452 24.466-111.063 57.258-29.521 30.625-48.808 71.309-43.475 116.902zm14.4-1.748c-5.178-41.172 12.329-77.964 38.789-105.866 29.081-30.666 68.99-50.761 102.541-54.105 35.21-3.479 80.632 7.98 116.539 36.084 29.991 23.473 53.284 58.621 58.484 106.372 4.699 44.248-9.3 84.053-35.262 112.564-26.361 28.948-65.022 46.188-108.584 44.761-41.363-1.381-82.079-14.694-113.738-38.645-31.328-23.7-53.707-57.889-58.769-101.165z" class="B"/></g></g><path d="M594.919 861.416c.888-3.561 3.849-8.748 10.415-11.18 14.151-5.243 24.937-.422 31.314 7.049 11.687 13.695 1.47 12.121-1.629 14.876-.922.819-29.243 7.777-29.243 7.777s-14.653-3.299-10.857-18.522z" class="J"/><g transform="matrix(.960224 -.279229 .294238 1.01184 -202.256 199.996)"><path d="M580.779 813.955c-15.077 37.737 19.465 111.124 61.028 126.491 24.438 9.035 50.66 5.973 48.947-14.111-1.241-14.54-56.153-23.274-64.389-55.661-5.516-21.692-5.243-33.513-1.832-41.942" class="J"/><path d="M575.684 812.122c-8.442 20.046-4.024 49.982 8.464 76.839 6.872 14.779 16.18 28.586 26.835 39.287 8.613 8.65 18.189 15.23 28.053 18.948 14.834 5.447 30.277 6.74 41.108 3.483 11.78-3.543 19.153-11.665 17.876-24.902-.474-4.797-4.04-9.716-10.721-14.051-10.315-6.694-29-13.336-42.393-24.314-5.985-4.905-10.932-10.673-12.964-18.015-2.768-9.979-4.235-17.774-4.637-24.098-.4-6.304.208-11.023 1.688-14.941.946-2.336-.285-4.961-2.747-5.859s-5.227.271-6.173 2.607c-2.083 4.82-3.264 10.669-3.122 18.572.123 6.859 1.312 15.36 3.837 26.273 2.251 9.703 8.16 17.642 15.737 24.333 11.437 10.101 26.912 17.16 37.784 23.497 2.638 1.538 4.957 3.025 6.79 4.514 1.164.945 2.315 1.589 2.388 2.599.537 7.156-5.161 10.197-12.465 10.959-7.741.807-17.227-.735-26.443-4.157-19.208-6.892-36.539-27.352-47.987-50.16-11.796-23.5-17.533-49.731-10.718-67.748 1.066-2.668-.351-5.656-3.163-6.668s-5.961.333-7.027 3.002z" class="B"/></g><g transform="translate(-8.71 9.966)"><use xlink:href="#k" class="L"/><clipPath id="L"><use xlink:href="#k"/></clipPath><g clip-path="url(#L)"><g stroke-width="7.32" class="D O"><path d="M1258.534 313.232c11.3 3.568 20.22 18.484 18.16 26.938m-40.208-15.089c20.1-28.597 68.71-22.558 68.04-3.356"/></g><path d="M1222.86 252.381c57.95-13.63 95.62-.805 109.38 30.044 28.09 62.949-70.32 94.988-70.32 94.988l126.13-.362 4.87-148.757c.75-2.954-92.52-49.403-95.62-49.079s-131.06 86.481-74.44 73.166z" class="M"/></g><path d="M1176.52 318.916c8.88-27.928 21.5-45.648 35.21-56.985 21.58-17.844 45.97-19.296 62.12-19.719 16.09-.6 31.35 2.306 44.32 8.763 13.1 6.521 23.84 16.724 30.41 30.9 10.04 21.458-.69 45.284-19.97 63.146-17.68 16.375-42.78 27.908-68.34 28.343-3.74.03-6.75 3.089-6.71 6.827a6.77 6.77 0 0 0 6.82 6.716c35.35.022 70.31-18.534 90.28-43.41 16.6-20.667 22.8-45.599 12.52-68.337-8.09-17.762-21.34-30.739-37.71-38.864-15.29-7.588-33.34-10.892-52.29-10.013-18.5 1.064-46.45 3.822-70.39 25.255-14.64 13.099-27.85 33.226-36.18 64.483-.8 2.736.77 5.606 3.5 6.405 2.74.799 5.61-.774 6.41-3.51z" class="B"/></g><g transform="matrix(1.00037 -.164719 .167639 1.01811 -65.1626 122.748)"><use xlink:href="#l" class="L"/><clipPath id="M"><use xlink:href="#l"/></clipPath><g clip-path="url(#M)"><g transform="matrix(-.878795 -.613773 -.776052 .941237 2083.45 799.462)" class="D O"><path d="M1271.73 292.663c11.3 3.568 20.22 18.484 18.16 26.938" stroke-width="6.05"/></g><g transform="matrix(-1.02919 -.365582 -.462241 1.10231 2165.33 422.618)" class="D O"><path d="M1241.66 308.388c20.1-28.597 68.71-22.558 68.04-3.356" stroke-width="6.11"/></g><g transform="matrix(1.10125 .059929 -.065114 1.01357 -51.1102 -52.5551)" class="M"><path d="M674.355 356.482c-29.79-26.277-45.54-52.548-44.778-73.609 1.575-43.558 75.126-77.836 124.598-36.753 26.555 22.053 26.395 63.064 26.395 63.064s41.027-43.747 43.394-48.223-46.803-110.265-46.803-110.265l-97.965-10.668s-127.458 75.526-132.752 135.657c-4.617 52.435 142.605 93.757 127.911 80.797z"/></g></g><path d="M798.031 309.61c3.14-21.589 3.117-44.83-8.101-65.246-8.999-16.375-25.219-30.984-53.002-41.424-12.721-4.686-27.726-6.279-42.981-4.844-14.052 1.321-28.324 5.166-41.094 11.255-28.157 13.425-48.947 37.471-47.065 68.073 1.37 20.355 8.925 36.036 18.348 47.794 17.561 21.911 41.34 30.112 41.34 30.112 2.727.999 5.767-.366 6.783-3.046s-.372-5.666-3.099-6.665c0 0-20.453-8.05-35.1-27.791-7.617-10.265-13.577-23.772-14.122-41.078-.916-24.575 17.122-42.657 39.841-53.15 11.178-5.163 23.553-8.503 35.77-9.753 12.774-1.308 25.371-.436 36.103 3.304 23.996 8.192 38.407 19.968 46.588 33.679 10.565 17.707 10.999 38.284 8.99 57.477-.366 2.928 1.757 5.598 4.737 5.957s5.698-1.725 6.064-4.654z" class="B"/></g><defs ><path id="O" d="M1175.81 822.197c44.57 25.7 64.8 39.989 66.52 88.261 1.79 50.31-23.37 44.092-28.27 42.69-20.02-5.735-3.22-33.195-7.96-55.401s-48.16-43.429-48.16-43.429"/><path id="P" d="M464.288 687.66c-11.507-277.758 252.571-485.681 487.094-462.7s355.328 141.66 344.908 275.697c-13.74 176.488-86.68 236.508-110.79 345.498s10.18 131.411-10.06 202.905c-27.86 98.45-240.432 213.11-461.231 142.35-196.226-62.88-238.415-225.992-249.921-503.75z"/><path id="Q" d="M434.872 1048.66c-4.391 92.92-1.276 180.21 11.919 259.92 11.301 3.97 28.068 5.92 50.574-1.19 1.176-79.76-5.181-165.6-6.76-260.9l-55.733 2.17z"/><path id="R" d="M460.358 1000.35c22.72 202.87 20.736 386.65 20.736 386.65l116.978-7.21-69.079-359.84"/><path id="S" d="M425.512 1048.38c.183-3.86 4.049-6.97 8.903-7.16l55.754-1.83c2.423-.09 4.791.6 6.559 1.92s2.786 3.16 2.817 5.09c.586 64.88 3.282 125.39 4.607 182.57.622 26.86 1.008 52.98.563 78.49-.035 2.37-1.865 4.48-4.634 5.36-10.251 3.25-19.42 4.75-27.513 5.11-11.739.53-21.31-1.33-28.786-3.95-2.372-.83-4.025-2.59-4.364-4.63-7.115-41.48-11.454-85.01-13.58-130.32-1.975-42.08-2.049-85.7-.326-130.65zm56.348 5.63l7.169 175.23c.846 25.31 1.248 49.96 1.027 74.06-6.7 1.78-12.794 2.68-18.296 2.91-7.07.3-13.11-.51-18.14-1.86-6.236-40.1-9.977-82.08-11.378-125.73-1.273-39.67-.594-80.7 1.624-122.91l37.994-1.7z"/><path id="T" d="M471.692 1060.2l4.372 153.26c297.542.37 579.816-11.66 848.146-23.45l3.42-157.66-855.938 27.85z"/><path id="U" d="M545.643 1173.253v-18.115c0-1.235 0-2.196.138-2.745.138-.686.551-1.235 1.377-1.921.688-.686 1.79-.961 3.304-.961 1.377 0 2.478.274 3.166.823s1.101 1.098 1.239 1.647.138 1.372.275 2.333c.275 5.352 2.478 9.332 6.47 11.939 4.267 2.745 9.636 4.254 16.106 4.254 5.231 0 9.223-1.51 12.251-4.666s4.543-6.587 4.543-10.567c0-8.097-5.093-13.312-15.28-15.507-4.543-.823-9.773-2.058-15.83-3.705-5.506-1.51-9.773-4.391-13.077-8.371-3.166-3.98-4.68-8.371-4.68-13.174 0-6.038 2.34-11.253 7.158-15.782 4.956-4.529 11.012-6.724 18.446-6.724 7.709 0 14.178 2.196 19.272 6.45.413-1.647.826-2.882 1.101-3.568s.826-1.372 1.377-1.921c.688-.686 1.652-.961 2.615-.961 2.753 0 4.13 1.921 4.13 5.627v18.115c0 1.235-.138 2.058-.138 2.745-.138.686-.551 1.235-1.377 1.921-.688.686-1.79.961-3.304.961-2.753 0-4.267-1.235-4.68-3.842l-.688-3.568c-.275-.823-.826-2.196-1.79-4.254-.964-1.921-1.927-3.431-3.166-4.666-1.239-1.098-3.028-2.196-5.369-3.156s-5.093-1.51-8.122-1.51c-4.818 0-8.672 1.372-11.838 4.117-3.166 2.607-4.68 5.764-4.68 9.469 0 3.156 1.101 5.901 3.166 8.097 2.065 2.333 4.68 3.842 7.846 4.803l11.15 2.47c5.781 1.372 10.049 2.607 12.389 3.568 2.478.961 5.093 2.745 7.709 5.352 4.405 4.666 6.607 10.155 6.607 16.331 0 6.45-2.34 12.076-7.158 17.017-4.818 4.803-11.012 7.273-18.721 7.273-9.498 0-17.069-2.058-22.713-6.313-.551 2.333-1.239 3.98-1.927 4.94s-1.79 1.372-3.166 1.372c-2.753 0-4.13-1.784-4.13-5.627z"/><path id="V" d="M609.905 1122.477c0-2.745 1.927-4.254 5.644-4.254h11.976v-11.253c0-1.235 0-2.196.138-2.745 0-.686.551-1.235 1.239-1.921.826-.686 1.927-.961 3.441-.961 2.065 0 3.441.412 3.992 1.372.413.961.688 2.333.688 4.254v11.253h22.575c1.101 0 2.065 0 2.615.137.551 0 1.239.412 1.79 1.098.688.686 1.101 1.784 1.101 3.019 0 2.745-1.79 4.117-5.506 4.117h-22.575v32.661c0 1.372.138 2.333.275 3.294.138.823.413 1.921.964 3.294.688 1.235 1.652 2.333 3.304 2.882 1.514.686 3.579 1.098 6.057 1.098 1.514 0 2.891-.274 4.405-.686s3.028-1.372 4.543-3.019c1.377-1.51 2.202-3.568 2.202-6.175 0-.961 0-1.784.138-2.47s.551-1.235 1.377-1.784c.688-.686 1.79-.961 3.166-.961 1.514 0 2.615.274 3.304.961.826.686 1.239 1.235 1.377 1.784.138.686.138 1.51.138 2.607 0 5.627-2.065 10.155-6.47 13.312-4.267 3.156-9.223 4.803-14.867 4.803s-10.186-1.51-13.903-4.529c-3.717-2.882-5.506-7.411-5.506-13.586v-33.485h-12.114c-3.717 0-5.506-1.372-5.506-4.117z"/><path id="W" d="M684.492 1159.804c0-6.313 3.717-11.39 11.15-14.821 7.571-3.568 17.62-5.489 30.146-5.627 0-4.666-1.514-8.097-4.68-10.43s-7.433-3.568-12.939-3.568c-2.065 0-3.717 0-4.956.137-1.377.137-2.202.274-2.478.412s-.413.549-.413 1.098c-.138 2.196-.826 3.842-2.065 4.803-1.239 1.098-2.615 1.51-3.992 1.51-1.79 0-3.166-.549-4.405-1.647s-1.79-2.745-1.79-4.666c0-6.724 6.607-10.018 19.685-10.018h.275c9.085 0 15.968 2.196 20.51 6.45 4.405 4.254 6.745 9.195 6.745 14.821v29.642c1.927.686 4.68 1.098 8.259 1.098 3.717 0 5.506 1.372 5.506 4.117 0 1.372-.413 2.47-1.101 3.019-.688.686-1.377.961-2.202 1.098-.688.137-1.927.137-3.579.137-7.846 0-12.664-1.51-14.867-4.391-5.369 3.431-11.976 5.215-20.097 5.215-6.745 0-12.251-1.784-16.381-5.489-4.267-3.568-6.332-7.959-6.332-12.9zm9.498 0c0 2.745 1.377 5.078 3.992 6.999 2.615 2.058 6.057 3.019 10.186 3.019 4.956 0 8.948-.823 12.251-2.333 1.652-.686 2.891-1.51 3.717-2.607s1.377-2.058 1.514-2.745c0-.686.138-1.784.138-3.156v-11.527c-9.773.274-17.62 1.51-23.264 3.842s-8.535 5.078-8.535 8.508z"/><path id="X" d="M746.552 1122.477c0-2.745 1.927-4.254 5.644-4.254h11.976v-11.253c0-1.235 0-2.196.138-2.745 0-.686.551-1.235 1.239-1.921.826-.686 1.927-.961 3.441-.961 2.065 0 3.441.412 3.992 1.372.413.961.688 2.333.688 4.254v11.253h22.575c1.101 0 2.065 0 2.615.137.551 0 1.239.412 1.79 1.098.688.686 1.101 1.784 1.101 3.019 0 2.745-1.79 4.117-5.506 4.117H773.67v32.661c0 1.372.138 2.333.275 3.294.138.823.413 1.921.964 3.294.688 1.235 1.652 2.333 3.304 2.882 1.514.686 3.579 1.098 6.057 1.098 1.514 0 2.891-.274 4.405-.686s3.028-1.372 4.543-3.019c1.377-1.51 2.202-3.568 2.202-6.175 0-.961 0-1.784.138-2.47s.551-1.235 1.377-1.784c.688-.686 1.79-.961 3.166-.961 1.514 0 2.615.274 3.304.961.826.686 1.239 1.235 1.377 1.784.138.686.138 1.51.138 2.607 0 5.627-2.065 10.155-6.47 13.312-4.267 3.156-9.223 4.803-14.867 4.803s-10.186-1.51-13.903-4.529c-3.717-2.882-5.506-7.411-5.506-13.586v-33.485h-12.114c-3.717 0-5.506-1.372-5.506-4.117z"/><path id="Y" d="M819.762 1173.253c0-2.745 1.927-4.254 5.644-4.254h16.656v-42.405h-15.555c-3.717 0-5.644-1.372-5.644-4.254 0-2.745 1.927-4.117 5.644-4.117h19.547c2.34 0 3.717.412 4.543 1.098.688.823.964 2.333.964 4.529v45.149h14.454c3.717 0 5.644 1.372 5.644 4.254 0 2.745-1.927 4.117-5.644 4.117h-40.608c-3.717 0-5.644-1.372-5.644-4.117zm19.96-68.067c-1.239-1.372-1.927-3.019-1.927-4.94s.688-3.568 1.927-4.803c1.377-1.372 3.028-2.058 4.956-2.058s3.579.686 4.818 2.058c1.377 1.235 2.065 2.882 2.065 4.803s-.688 3.568-2.065 4.803c-1.239 1.372-2.891 2.058-4.818 2.058s-3.579-.686-4.956-1.921z"/><path id="Z" d="M877.005 1147.728c0-3.294.551-6.587 1.79-10.018 1.101-3.294 2.891-6.587 5.231-9.881 2.34-3.156 5.781-5.764 10.049-7.822s9.223-3.019 14.867-3.019c13.628 0 20.51 3.294 20.51 10.018 0 1.921-.551 3.431-1.79 4.666-1.101 1.098-2.615 1.647-4.405 1.647-3.854 0-5.919-2.196-6.057-6.724 0-.823-2.753-1.235-8.259-1.235-4.267 0-7.984.823-11.15 2.47s-5.644 3.842-7.158 6.313c-1.514 2.607-2.615 4.94-3.166 7.273-.688 2.196-.964 4.391-.964 6.313 0 6.175 2.202 11.527 6.332 15.644 4.267 4.254 9.36 6.45 15.28 6.45 6.47 0 11.012-2.745 13.628-8.234.413-1.372.964-2.196 1.652-2.47.688-.412 1.652-.549 2.891-.549 3.166 0 4.818 1.235 4.818 3.705 0 .961-.413 2.058-1.101 3.705-.688 1.51-1.927 3.156-3.441 5.215-1.652 1.921-4.13 3.568-7.571 4.94s-7.296 2.058-11.701 2.058c-8.535 0-15.693-3.019-21.474-9.057-5.919-5.901-8.81-13.037-8.81-21.408z"/><path id="a" d="M1010.482 1173.253c0-2.745 1.927-4.254 5.644-4.254h6.057v-67.106h-6.194c-3.717 0-5.506-1.372-5.506-4.117 0-2.882 1.927-4.254 5.644-4.254h10.049c2.34 0 3.717.412 4.405 1.098.688.823 1.101 2.333 1.101 4.529v25.525c4.818-4.803 10.875-7.273 18.033-7.273 11.838 0 17.895 6.587 17.895 19.761v31.838h6.057c3.854 0 5.644 1.372 5.644 4.254 0 2.745-1.79 4.117-5.506 4.117h-21.061c-3.717 0-5.644-1.372-5.644-4.117s1.927-4.254 5.644-4.254h5.369v-31.152c0-4.254-.688-7.411-1.927-9.195-1.377-1.921-3.854-2.882-7.296-2.882-4.267 0-8.122 1.647-11.701 4.803-3.717 3.156-5.506 7.959-5.506 14.135v24.29h6.057c3.717 0 5.644 1.372 5.644 4.254 0 2.745-1.79 4.117-5.506 4.117h-21.887c-3.717 0-5.506-1.372-5.506-4.117z"/><path id="b" d="M1096.634 1169.136c-6.194-5.901-9.223-13.174-9.223-21.545s2.891-15.644 8.672-21.683c5.781-5.901 12.802-8.92 20.923-8.92 8.535 0 15.142 2.745 19.685 8.371 4.68 5.489 7.02 12.351 7.02 20.722 0 1.235-.138 2.196-.413 2.882s-.688 1.235-1.377 1.51c-.551.412-1.101.549-1.652.686h-2.065-41.021c1.101 5.627 3.854 10.155 8.259 13.586 4.267 3.431 9.223 5.078 14.591 5.078 7.158 0 11.976-2.745 14.316-8.234.413-1.372.964-2.196 1.652-2.47.688-.412 1.652-.549 2.891-.549 3.166 0 4.818 1.235 4.818 3.705 0 1.098-.413 2.47-1.377 4.117-.964 1.51-2.34 3.294-4.13 5.215-1.79 1.784-4.405 3.431-7.709 4.666-3.441 1.235-7.158 1.921-11.425 1.921-8.81 0-16.243-3.019-22.438-9.057zm.688-26.211h36.616c-.551-6.45-2.478-10.841-5.644-13.586-3.166-2.607-7.02-3.98-11.288-3.98-4.68 0-8.948 1.647-12.664 4.94-3.579 3.431-6.057 7.548-7.02 12.625z"/><path id="c" d="M1227.911 1173.116c0-2.745 1.79-4.117 5.506-4.117h6.745v-67.106h-6.745c-1.101 0-1.927 0-2.615-.137-.551 0-1.101-.412-1.79-1.098s-1.101-1.784-1.101-3.019c0-2.745 1.79-4.117 5.506-4.117h8.948c2.34 0 3.717.412 4.405 1.098.688.823 1.101 2.333 1.101 4.529v48.306l22.3-20.859h-5.093c-3.717 0-5.506-1.372-5.506-4.117 0-1.235.275-2.333 1.101-3.019.688-.686 1.239-1.098 1.79-1.098.688-.137 1.514-.137 2.615-.137h21.199c3.717 0 5.644 1.372 5.644 4.254 0 2.745-1.927 4.117-5.644 4.117h-4.818l-16.931 15.782 20.51 26.623h4.267c3.717 0 5.644 1.372 5.644 4.254 0 2.745-1.927 4.117-5.644 4.117h-16.243c-3.717 0-5.506-1.372-5.506-4.117 0-1.372.413-2.333 1.101-3.019s1.377-.961 2.202-1.098c.964-.137 2.34-.137 4.405-.137l-16.381-21.271-11.012 10.155v11.116h6.745c1.101 0 1.927 0 2.615.137a4.02 4.02 0 0 1 1.927 1.098c.551.823.964 1.784.964 3.019 0 2.745-1.79 4.117-5.506 4.117h-21.199c-1.101 0-1.927 0-2.615-.137-.551-.137-1.101-.412-1.79-1.098s-1.101-1.647-1.101-3.019z"/><path id="d" d="M528.039 937.755c14.307 34.338 42.637 46.296 182.862 43.709 80.608-1.487 504.839-22.736 546.559-29.615 41.71-6.879 122.15-16.411 90.72-59.752 33.47 5.733 91.9 12.777 91.9 12.777 38.64 3.858 55.16 79.963-34.48 86.153-185.42 12.803-793.6 37.023-815.001 32.813-51.661-10.14-61.755-39.449-61.755-39.449s-11.396-21.607-.805-46.636z"/><path id="e" d="M375.753 565.598a5.1 5.1 0 0 1 .312-1.752c.192-.576.504-1.152.912-1.728.408-.552 1.008-1.008 1.752-1.368s1.608-.528 2.592-.528c2.376 0 3.576.576 3.576 1.752 0 .336-.096.6-.312.816-.192.192-.456.288-.768.288-.672 0-1.032-.384-1.056-1.176 0-.144-.48-.216-1.44-.216-.744 0-1.392.144-1.944.432s-.984.672-1.248 1.104c-.264.456-.456.864-.552 1.272-.12.384-.168.768-.168 1.104 0 1.08.384 2.016 1.104 2.736.744.744 1.632 1.128 2.664 1.128 1.128 0 1.92-.48 2.376-1.44.072-.24.168-.384.288-.432.12-.072.288-.096.504-.096.552 0 .84.216.84.648 0 .168-.072.36-.192.648-.12.264-.336.552-.6.912-.288.336-.72.624-1.32.864s-1.272.36-2.04.36c-1.488 0-2.736-.528-3.744-1.584-1.032-1.032-1.536-2.28-1.536-3.744z"/><path id="f" d="M3220.31 1465.852c0-.175.056-.321.172-.445a.53.53 0 0 1 .405-.186c.158 0 .293.062.405.183a.63.63 0 0 1 .172.448c0 .175-.056.321-.172.442s-.248.183-.405.183-.293-.059-.405-.18a.61.61 0 0 1-.172-.445zm.194-.02c0 .129.037.239.113.332s.166.141.27.141.194-.048.27-.138.113-.205.113-.335a.44.44 0 0 0-.115-.312c-.076-.084-.163-.127-.267-.127s-.191.042-.267.127a.43.43 0 0 0-.115.312z"/><path id="g" d="M3223.224 1468.887c0-.045.011-.076.037-.099s.053-.034.09-.034.065.011.087.037.037.053.037.087-.011.065-.034.087c.031.059.09.099.169.127s.158.037.234.037c.121 0 .222-.034.298-.104s.115-.152.115-.245-.037-.172-.113-.242-.18-.11-.31-.11h-.129c-.023 0-.039 0-.053-.003s-.025-.008-.039-.023-.02-.037-.02-.062c0-.037.011-.062.037-.07a.75.75 0 0 1 .166-.023c.113-.006.2-.034.262-.084.079-.065.118-.146.118-.245 0-.065-.031-.118-.096-.163a.41.41 0 0 0-.236-.065c-.149 0-.253.028-.312.087.017.017.025.042.025.076s-.011.068-.039.093-.053.034-.084.034-.062-.011-.087-.034-.039-.056-.039-.099c0-.099.048-.18.144-.239s.225-.09.391-.09c.158 0 .284.039.383.115s.146.172.146.281c0 .079-.02.155-.059.231a.5.5 0 0 1-.177.183.57.57 0 0 1 .231.183.44.44 0 0 1 .087.267c0 .138-.056.259-.172.363s-.259.158-.436.158-.324-.037-.442-.115-.177-.175-.177-.298z"/><path id="h" d="M1448.05 889.507c-19.4-4.565-34.93 4.738-42.54 12.986-20.71 22.46-1.15 48.811-1.15 48.811-28.21-16.001-61.15-27.933-100.33-34.523 0 0-10.94-21.907 11.63-41.282 13.39-11.481 32.05-9.11 32.05-9.11 35.26 7.07 68.1 13.447 100.34 23.118z"/><path id="i" d="M1044.47 633.543c7.2-70.142 54.3-143.749 140.33-145.486 79.84-1.612 160.05 64.081 161.52 130.845 1.71 77.599-50.35 163.318-122.71 161.502-125.92-3.159-188.05-60.214-179.14-146.861z"/><path id="j" d="M648.661 677.624c-10.973-90.415 80.906-160.643 147.934-167.066s169.578 39.252 181.277 148.069c9.984 92.869-59.616 166.847-149.689 164.172-85.568-2.541-168.55-54.76-179.522-145.175z"/><path id="k" d="M1171.56 317.469c22.52-77.103 73.85-82.045 101.96-83.222 35.78-1.497 67.98 12.994 82.36 44.27 20.97 45.591-36.49 101.14-95.55 101.619"/><path id="l" d="M792.63 308.958c4.561-36.481.375-77.865-58.34-98.912-46.073-16.516-124.114 12.613-121.427 67.041s54.455 73.388 54.455 73.388"/></defs></svg>